<svg xmlns="http://www.w3.org/2000/svg" width="1280" height="340" viewBox="0 0 1280 340" role="img" aria-labelledby="title desc">
  <title id="title">CodeRisk / PICAS</title>
  <desc id="desc">Problem-aware code similarity risk analysis. Context, structure and evidence. A research prototype built with Vue, Spring Boot and FastAPI.</desc>
  <defs>
    <linearGradient id="bg" x1="0" y1="0" x2="1" y2="1"><stop stop-color="#102b3c"/><stop offset="1" stop-color="#102f36"/></linearGradient>
    <linearGradient id="accent"><stop stop-color="#54e4cc"/><stop offset="1" stop-color="#83bfff"/></linearGradient>
  </defs>
  <rect width="1280" height="340" rx="20" fill="url(#bg)"/>
  <path d="M800 0v340M880 0v340M960 0v340M1040 0v340M1120 0v340M1200 0v340M760 60h520M760 140h520M760 220h520M760 300h520" stroke="#e0fbf6" stroke-opacity=".04"/>
  <rect x="54" y="46" width="37" height="37" rx="10" fill="#54e4cc" fill-opacity=".12"/>
  <path d="m69 57-6 7 6 7m8-14 6 7-6 7" fill="none" stroke="#74eed8" stroke-width="2.5" stroke-linecap="round" stroke-linejoin="round"/>
  <g font-family="Segoe UI, Arial, sans-serif">
    <text x="105" y="71" fill="#b4cccF" font-size="15" letter-spacing="3">CONTEXT / STRUCTURE / EVIDENCE</text>
    <text x="54" y="150" fill="#f4fbfa" font-size="66" font-weight="700" letter-spacing="-2">CodeRisk</text>
    <text x="373" y="150" fill="#79d8d1" font-size="32" font-weight="400">/ PICAS</text>
    <text x="57" y="198" fill="#c2d6d9" font-size="21">Problem-aware code similarity risk analysis</text>
    <rect x="55" y="237" width="162" height="32" rx="16" fill="#54e4cc" fill-opacity=".13" stroke="#54e4cc" stroke-opacity=".32"/>
    <text x="136" y="258" fill="#95ecdb" font-size="13" text-anchor="middle">RESEARCH PROTOTYPE</text>
    <text x="238" y="258" fill="#a7bec4" font-size="14">Vue 3  /  Spring Boot  /  FastAPI</text>
    <rect x="834" y="53" width="383" height="234" rx="16" fill="#0a1f2d" stroke="#385461"/>
    <circle cx="856" cy="76" r="4" fill="#54e4cc"/><circle cx="873" cy="76" r="4" fill="#609bba"/><circle cx="890" cy="76" r="4" fill="#516974"/>
    <path d="M834 94h383" stroke="#294653"/>
    <text x="860" y="122" fill="#7797a8" font-size="11" letter-spacing="2">REVIEW WITH CONTEXT</text>
    <text x="860" y="162" fill="#e4f2f5" font-size="18">Question + source code</text>
    <path d="M863 180h317" stroke="#2b4b58"/>
    <text x="860" y="210" fill="#74eed8" font-size="17">Similarity</text>
    <text x="1045" y="210" fill="#a6c3d0" font-size="17">+ Evidence</text>
    <rect x="860" y="232" width="147" height="30" rx="7" fill="#163c45"/>
    <text x="933" y="252" text-anchor="middle" fill="#a4e7dd" font-size="12">HUMAN REVIEW</text>
    <path d="m1020 247 8 0m-4-4 4 4-4 4" stroke="#7493a4" stroke-width="1.5" fill="none"/>
    <text x="1043" y="251" fill="#98b4c0" font-size="12">Traceable report</text>
  </g>
  <rect x="55" y="305" width="75" height="3" rx="1.5" fill="url(#accent)"/>
</svg>
